# xmcd CD database file
#
# Track frame offsets:
#	150
#	15131
#	38099
#	58317
#	69334
#	82248
#	95726
#	117975
#	132000
#	143625
#	164100
#	176625
#	193275
#	207375
#	221100
#	237150
#	248775
#
# Disc length: 3531 seconds
#
# Revision: 0
# Processed by: cddbd v1.5.2PL0 Copyright (c) Steve Scherf et al.
# Submitted via: CDex 1.70beta2
#
DISCID=000dc911
DTITLE=Various Artist - Gospel Jukebox Vol 25 - Christmas Edition
DYEAR=2006
DGENRE=Country
TTITLE0=Judy De Ramus and The Jordanaires/White Christmas
TTITLE1=Gary Lanier/My Heart Is Full Of Worship
TTITLE2=Faithful Heart/Christmas On The Line
TTITLE3=Gayla Earlene/Frosty The Snowman
TTITLE4=Morgan and Morgan/Silent Night
TTITLE5=The Bryan Berline Band/Christmas Time Is Coming
TTITLE6=Debbie Bennett/A Christmas Dream
TTITLE7=Bill Townsend/Santa Bring My Daddy Back To Me
TTITLE8=Rosie O'Toole/Jingles To Joy
TTITLE9=Faithful Heart/New Star Shining
TTITLE10=Faithful Heart/Let It Snow, Let It Snow
TTITLE11=Gene Crain/Blue Christmas (Instrumental)
TTITLE12=Bill Townsend/Red Neck Santa Claus
TTITLE13=Judy De Ramus and The Jordanaires/Even Santa Ought To Know
TTITLE14=Judy De Ramus and The Jordanaires/On A Snowy Christmas Night
TTITLE15=Judy De Ramus and The Jordanaires/Winter Wonderland
TTITLE16=Judy De Ramus and The Jordanaires/Missing You At Christmas
EXTD=YEAR: 2006
EXTT0=
EXTT1=
EXTT2=
EXTT3=
EXTT4=
EXTT5=
EXTT6=
EXTT7=
EXTT8=
EXTT9=
EXTT10=
EXTT11=
EXTT12=
EXTT13=
EXTT14=
EXTT15=
EXTT16=
PLAYORDER=
